<svg width="54" height="54" viewBox="0 0 54 54" fill="none" xmlns="http://www.w3.org/2000/svg">
<path d="M0 27C0 41.9117 12.0883 54 27 54C41.9117 54 54 41.9117 54 27C54 12.0883 41.9117 0 27 0C12.0883 0 0 12.0883 0 27Z" fill="#F00073"/>
<path d="M27 15.525C30.7125 15.525 31.2188 15.525 32.7375 15.525C34.0875 15.525 34.7625 15.8625 35.2688 16.0313C35.9438 16.3688 36.45 16.5375 36.9563 17.0438C37.4625 17.55 37.8 18.0563 37.9688 18.7313C38.1375 19.2375 38.3063 19.9125 38.475 21.2625C38.475 22.7813 38.475 23.1188 38.475 27C38.475 30.8813 38.475 31.2188 38.475 32.7375C38.475 34.0875 38.1375 34.7625 37.9688 35.2688C37.6313 35.9438 37.4625 36.45 36.9563 36.9563C36.45 37.4625 35.9438 37.8 35.2688 37.9688C34.7625 38.1375 34.0875 38.3063 32.7375 38.475C31.2188 38.475 30.8813 38.475 27 38.475C23.1188 38.475 22.7813 38.475 21.2625 38.475C19.9125 38.475 19.2375 38.1375 18.7313 37.9688C18.0563 37.6313 17.55 37.4625 17.0438 36.9563C16.5375 36.45 16.2 35.9438 16.0313 35.2688C15.8625 34.7625 15.6938 34.0875 15.525 32.7375C15.525 31.2188 15.525 30.8813 15.525 27C15.525 23.1188 15.525 22.7813 15.525 21.2625C15.525 19.9125 15.8625 19.2375 16.0313 18.7313C16.3688 18.0563 16.5375 17.55 17.0438 17.0438C17.55 16.5375 18.0563 16.2 18.7313 16.0313C19.2375 15.8625 19.9125 15.6938 21.2625 15.525C22.7813 15.525 23.2875 15.525 27 15.525ZM27 12.9938C23.1188 12.9938 22.7813 12.9938 21.2625 12.9938C19.7438 12.9938 18.7313 13.3313 17.8875 13.6688C17.0438 14.0063 16.2 14.5125 15.3563 15.3563C14.5125 16.2 14.175 16.875 13.6688 17.8875C13.3313 18.7313 13.1625 19.7438 12.9938 21.2625C12.9938 22.7813 12.9938 23.2875 12.9938 27C12.9938 30.8813 12.9938 31.2188 12.9938 32.7375C12.9938 34.2563 13.3313 35.2688 13.6688 36.1125C14.0063 36.9563 14.5125 37.8 15.3563 38.6438C16.2 39.4875 16.875 39.825 17.8875 40.3313C18.7313 40.6688 19.7438 40.8375 21.2625 41.0063C22.7813 41.0063 23.2875 41.0063 27 41.0063C30.7125 41.0063 31.2188 41.0063 32.7375 41.0063C34.2563 41.0063 35.2688 40.6688 36.1125 40.3313C36.9563 39.9938 37.8 39.4875 38.6438 38.6438C39.4875 37.8 39.825 37.125 40.3313 36.1125C40.6688 35.2688 40.8375 34.2563 41.0063 32.7375C41.0063 31.2188 41.0063 30.7125 41.0063 27C41.0063 23.2875 41.0063 22.7813 41.0063 21.2625C41.0063 19.7438 40.6688 18.7313 40.3313 17.8875C39.9938 17.0438 39.4875 16.2 38.6438 15.3563C37.8 14.5125 37.125 14.175 36.1125 13.6688C35.2688 13.3313 34.2563 13.1625 32.7375 12.9938C31.2188 12.9938 30.8813 12.9938 27 12.9938Z" fill="white"/>
<path d="M27 19.7438C22.95 19.7438 19.7438 22.95 19.7438 27C19.7438 31.05 22.95 34.2563 27 34.2563C31.05 34.2563 34.2563 31.05 34.2563 27C34.2563 22.95 31.05 19.7438 27 19.7438ZM27 31.725C24.4688 31.725 22.275 29.7 22.275 27C22.275 24.4688 24.3 22.275 27 22.275C29.5313 22.275 31.725 24.3 31.725 27C31.725 29.5313 29.5313 31.725 27 31.725Z" fill="white"/>
<path d="M34.425 21.2625C35.357 21.2625 36.1125 20.507 36.1125 19.575C36.1125 18.643 35.357 17.8875 34.425 17.8875C33.493 17.8875 32.7375 18.643 32.7375 19.575C32.7375 20.507 33.493 21.2625 34.425 21.2625Z" fill="white"/>
</svg>
