<svg width="54" height="54" viewBox="0 0 54 54" fill="none" xmlns="http://www.w3.org/2000/svg">
<path d="M0 27C0 41.9117 12.0883 54 27 54C41.9117 54 54 41.9117 54 27C54 12.0883 41.9117 0 27 0C12.0883 0 0 12.0883 0 27Z" fill="#0088CC"/>
<path d="M13.6686 26.5077C20.9164 23.35 25.7493 21.2683 28.1675 20.2624C35.0719 17.3907 36.5066 16.8918 37.4417 16.8752C37.6474 16.8717 38.1072 16.9227 38.4051 17.1644C38.6566 17.3685 38.7258 17.6442 38.7589 17.8377C38.792 18.0312 38.8333 18.472 38.8005 18.8164C38.4263 22.7477 36.8074 32.2878 35.9838 36.6908C35.6353 38.5539 34.949 39.1786 34.2847 39.2398C32.8409 39.3726 31.7446 38.2856 30.3462 37.369C28.158 35.9346 26.9219 35.0417 24.7979 33.642C22.3432 32.0244 23.9345 31.1354 25.3334 29.6824C25.6995 29.3022 32.0608 23.5161 32.1839 22.9912C32.1993 22.9256 32.2136 22.6809 32.0682 22.5516C31.9228 22.4224 31.7083 22.4666 31.5534 22.5018C31.334 22.5516 27.8384 24.8621 21.0666 29.4332C20.0743 30.1145 19.1756 30.4465 18.3704 30.4291C17.4827 30.4099 15.7751 29.9272 14.5057 29.5146C12.9487 29.0084 11.7113 28.7409 11.819 27.8813C11.8752 27.4336 12.4917 26.9758 13.6686 26.5077Z" fill="white"/>
</svg>
